<?xml version="1.0" encoding="UTF-8" standalone="no"?>
<!DOCTYPE svg PUBLIC "-//W3C//DTD SVG 1.1//EN" "http://www.w3.org/Graphics/SVG/1.1/DTD/svg11.dtd">
<svg width="100%" height="100%" viewBox="0 0 500 500" version="1.1" xmlns="http://www.w3.org/2000/svg" xmlns:xlink="http://www.w3.org/1999/xlink" xml:space="preserve" xmlns:serif="http://www.serif.com/" style="fill-rule:evenodd;clip-rule:evenodd;stroke-linejoin:round;stroke-miterlimit:2;">
    <rect x="0" y="0" width="250" height="250" style="fill:rgb(55,104,158);"/>
    <g transform="matrix(1,0,0,1,250,0)">
        <rect x="0" y="0" width="250" height="250" style="fill:rgb(166,162,55);"/>
    </g>
    <g transform="matrix(1,0,0,1,0,250)">
        <rect x="0" y="0" width="250" height="250" style="fill:rgb(74,161,128);"/>
    </g>
    <g transform="matrix(1,0,0,1,250,250)">
        <rect x="0" y="0" width="250" height="250" style="fill:rgb(195,79,74);"/>
        <clipPath id="_clip1">
            <rect x="0" y="0" width="250" height="250"/>
        </clipPath>
        <g clip-path="url(#_clip1)">
            <g transform="matrix(1,0,0,1,-250.403,-250)">
                <ellipse cx="309.952" cy="125" rx="71.722" ry="125" style="fill:rgb(76,114,155);"/>
            </g>
        </g>
    </g>
    <g transform="matrix(1.8798,0,0,1.8798,-126.946,141.421)">
        <g transform="matrix(144,0,0,144,307.661,94.337)">
        </g>
        <text x="96.269px" y="94.337px" style="font-family:'GrandStylus', 'Grand Stylus';font-size:144px;fill:rgb(245,245,245);">PTAH</text>
    </g>
</svg>
